<?xml version="1.0" standalone="no"?>
<!DOCTYPE svg PUBLIC "-//W3C//DTD SVG 20010904//EN"
 "http://www.w3.org/TR/2001/REC-SVG-20010904/DTD/svg10.dtd">
<svg version="1.0" xmlns="http://www.w3.org/2000/svg"
 width="300.000000pt" height="300.000000pt" viewBox="0 0 300.000000 300.000000"
 preserveAspectRatio="xMidYMid meet">
<metadata>
Created by potrace 1.10, written by Peter Selinger 2001-2011
</metadata>
<g transform="translate(0.000000,300.000000) scale(0.100000,-0.100000)"
fill="#000000" stroke="none">
<path d="M1548 2580 c-16 -4 -28 -6 -28 -4 0 3 -20 -9 -44 -25 -76 -52 -110
-109 -122 -203 -6 -46 -13 -57 -61 -101 -29 -28 -63 -66 -75 -86 -31 -53 -58
-80 -98 -99 -74 -35 -155 -134 -175 -214 -6 -24 -29 -39 -159 -103 -83 -41
-157 -75 -164 -75 -7 0 -12 -4 -12 -9 0 -5 -21 -17 -48 -27 -26 -10 -49 -21
-52 -24 -3 -4 -35 -21 -71 -39 -94 -46 -104 -67 -103 -206 3 -210 5 -761 3
-771 -13 -71 24 -138 93 -164 83 -31 377 -21 673 24 55 9 125 18 155 22 53 6
318 49 485 79 44 7 109 19 145 25 36 6 106 19 155 30 248 54 323 70 352 79 17
5 34 7 37 4 3 -3 11 -1 18 4 7 6 40 17 73 24 71 15 116 52 110 90 -2 13 -7 47
-12 74 -4 28 -8 77 -7 110 1 63 3 83 29 255 34 219 22 429 -30 535 -31 64 -97
137 -170 186 -27 19 -52 37 -55 40 -12 13 -332 169 -368 179 -27 7 -51 24 -75
53 -27 34 -77 75 -125 103 -2 1 -10 28 -18 61 -18 71 -33 102 -59 126 -48 42
-142 65 -197 47z m157 -55 c47 -35 79 -104 72 -156 -4 -34 -2 -39 24 -50 51
-21 107 -67 131 -108 19 -33 28 -40 65 -45 38 -5 85 -25 133 -56 8 -5 53 -28
100 -49 179 -83 316 -194 364 -295 52 -107 57 -301 16 -569 -23 -145 -28 -297
-11 -340 17 -43 13 -75 -9 -87 -31 -17 -330 -87 -597 -140 -626 -124 -1205
-199 -1442 -188 -95 5 -143 19 -169 51 -18 22 -24 963 -7 997 10 19 86 61 304
170 237 118 291 148 291 165 0 37 46 120 85 154 22 19 63 45 91 58 42 19 57
32 74 68 26 54 90 127 135 155 30 19 33 24 28 55 -9 58 16 125 66 175 54 53
96 70 168 66 38 -2 61 -10 88 -31z"/>
<path d="M1575 2463 c-55 -15 -95 -66 -95 -123 0 -69 52 -101 120 -74 119 48
96 229 -25 197z m61 -50 c20 -27 17 -53 -12 -90 -28 -37 -66 -44 -96 -16 -26
24 -22 60 11 94 34 33 77 38 97 12z"/>
<path d="M1698 2216 c-66 -57 -155 -71 -222 -35 l-38 20 -40 -27 c-45 -32 -86
-88 -111 -153 -16 -42 -16 -46 1 -75 14 -25 26 -32 56 -34 34 -3 43 2 81 42
43 44 44 45 97 39 43 -4 65 -1 107 18 49 21 54 21 63 6 12 -22 61 -47 92 -47
33 0 84 46 95 86 14 51 -30 129 -94 165 l-50 28 -37 -33z m106 -51 c41 -40 53
-75 37 -113 -18 -42 -45 -55 -87 -42 -19 6 -34 15 -34 19 0 4 -10 13 -23 20
-19 10 -31 9 -71 -8 -30 -14 -69 -21 -108 -21 -55 0 -63 -3 -107 -41 -39 -32
-53 -39 -75 -33 -50 12 -27 92 50 173 l42 44 60 -17 c41 -11 74 -14 104 -10
40 7 100 34 123 55 19 18 54 8 89 -26z"/>
<path d="M1927 2053 c-8 -42 -47 -93 -87 -115 -43 -23 -101 -19 -141 11 -28
21 -30 21 -79 5 -31 -10 -68 -15 -95 -12 -31 4 -45 2 -49 -8 -3 -7 -24 -27
-47 -44 -76 -55 -162 -34 -190 45 -7 19 -16 35 -19 35 -3 0 -30 -15 -60 -32
-115 -70 -126 -181 -23 -224 67 -29 146 -13 223 45 49 37 53 38 93 29 58 -14
147 -3 221 27 75 30 72 30 121 5 114 -58 295 32 295 147 0 63 -33 94 -116 107
-39 7 -42 6 -47 -21z m107 -34 c40 -31 32 -88 -18 -132 -33 -29 -102 -57 -140
-57 -35 0 -105 26 -118 45 -5 6 -12 5 -20 -3 -6 -6 -18 -12 -26 -12 -7 0 -34
-9 -59 -21 -52 -23 -154 -33 -218 -19 -22 4 -34 8 -27 9 7 0 11 4 9 9 -3 4 16
22 42 39 69 48 169 61 252 33 50 -17 66 -19 101 -9 58 15 84 34 120 90 35 55
59 62 102 28z m-805 -123 c16 -29 80 -66 114 -66 43 0 40 -18 -10 -54 -34 -25
-63 -37 -99 -42 -60 -7 -87 0 -114 29 -32 33 -25 71 20 117 45 46 71 50 89 16z"/>
<path d="M2190 1964 c0 -73 -77 -177 -164 -221 -65 -34 -191 -44 -248 -20 -34
14 -40 14 -90 -5 -39 -16 -81 -22 -155 -24 -90 -3 -108 -7 -140 -28 -58 -38
-119 -56 -192 -56 -77 0 -156 31 -187 75 l-20 27 -255 -129 -254 -128 90 -3
c285 -10 1171 124 1788 269 l137 33 -37 39 c-44 45 -133 110 -215 156 -49 27
-58 30 -58 15z m100 -74 c3 -3 21 -16 41 -28 71 -43 112 -96 77 -100 -7 -1
-89 -19 -183 -41 -167 -40 -275 -55 -275 -41 0 4 17 11 37 15 68 12 178 103
203 167 19 48 36 59 68 45 15 -6 29 -14 32 -17z m-484 -201 c32 -6 64 -15 71
-20 7 -7 12 -6 15 3 3 8 7 6 11 -5 3 -9 2 -17 -3 -17 -5 0 -94 -15 -197 -34
-169 -31 -313 -54 -383 -61 -14 -1 -32 -5 -40 -8 -8 -3 -91 -15 -185 -27 -93
-11 -183 -22 -200 -25 -16 -2 -81 -7 -143 -10 -97 -6 -111 -5 -106 8 5 15 103
67 124 67 6 0 10 5 10 10 0 6 4 10 10 10 5 0 46 18 91 40 45 22 88 40 96 40 8
0 29 -11 46 -23 50 -37 112 -57 178 -57 63 0 165 29 209 59 18 13 52 20 125
24 55 3 118 12 140 21 50 18 57 19 131 5z"/>
<path d="M2415 1637 c-151 -38 -559 -121 -800 -162 -487 -83 -796 -117 -1008
-113 l-147 3 0 -194 0 -193 22 16 c128 94 251 86 422 -27 70 -46 86 -52 131
-52 47 0 61 6 138 58 105 71 156 94 249 113 83 17 119 13 229 -27 44 -16 98
-29 120 -29 38 0 48 7 144 100 66 64 121 108 152 122 63 28 146 28 242 -2 82
-25 123 -20 176 22 46 36 55 73 54 220 -1 190 8 179 -124 145z m90 -27 c4 -6
6 -63 6 -127 -1 -126 -12 -164 -58 -197 -31 -23 -118 -25 -155 -5 -14 8 -60
13 -114 14 -80 0 -97 -3 -146 -28 -31 -16 -87 -58 -125 -95 -109 -106 -123
-115 -162 -114 -19 1 -37 5 -40 10 -7 10 -74 30 -156 48 -44 9 -73 10 -110 3
-74 -15 -169 -42 -175 -50 -3 -3 -28 -19 -57 -33 -28 -15 -57 -34 -64 -42 -21
-26 -69 -46 -113 -47 -34 -2 -55 6 -107 40 -109 70 -167 93 -250 100 -50 4
-78 2 -83 -5 -4 -6 -14 -8 -22 -5 -9 3 -19 1 -23 -5 -4 -6 -18 -13 -31 -14
l-25 -3 -3 115 c-4 174 -18 159 152 159 79 0 149 3 157 5 8 3 41 7 74 10 134
12 398 45 480 60 53 10 99 18 128 22 16 2 79 12 140 23 62 11 130 22 152 26
22 3 128 23 235 45 180 36 237 49 390 85 70 16 97 18 105 5z"/>
<path d="M2118 1166 c-44 -16 -94 -55 -173 -136 -109 -112 -155 -121 -316 -64
-88 32 -110 36 -160 31 -79 -9 -144 -35 -230 -95 -95 -66 -136 -82 -203 -82
-68 0 -92 9 -186 69 -76 49 -152 81 -193 81 -34 0 -118 -45 -155 -83 l-32 -33
-2 -154 -3 -155 55 -7 c211 -29 1209 116 1837 267 l151 36 -9 32 c-12 41 -11
144 1 227 5 35 8 66 6 67 -2 2 -19 -4 -39 -12 -49 -20 -108 -19 -192 5 -81 23
-106 24 -157 6z m190 -42 c33 -10 73 -14 102 -11 32 4 50 1 53 -6 7 -18 0
-234 -8 -247 -4 -6 -12 -10 -18 -9 -7 1 -19 0 -27 -4 -37 -14 -364 -83 -595
-126 -298 -56 -620 -106 -800 -126 -16 -2 -72 -8 -123 -14 -142 -17 -360 -23
-382 -11 -18 10 -19 20 -14 138 6 147 11 158 87 202 41 25 60 30 89 25 47 -7
136 -46 163 -72 29 -27 121 -64 176 -70 72 -8 138 13 220 68 170 116 240 129
398 75 173 -59 202 -52 353 89 56 53 116 103 133 109 37 16 120 11 193 -10z"/>
</g>
</svg>
